<svg xmlns="http://www.w3.org/2000/svg" viewBox="0 0 2048 1365"><filter id="b"><feGaussianBlur stdDeviation="12" /></filter><path fill="#282828" d="M0 0h2048v1360H0z"/><g filter="url(#b)" transform="matrix(8 0 0 8 4 4)" fill-opacity=".5"><ellipse fill="#9a9a9a" rx="1" ry="1" transform="matrix(43.32974 11.3749 -8.77527 33.4271 132.6 141.2)"/><ellipse cx="112" cy="42" rx="35" ry="68"/><ellipse fill="#b1b1b1" rx="1" ry="1" transform="rotate(160.1 55 76) scale(8.6066 30.59337)"/><ellipse fill="#090909" rx="1" ry="1" transform="matrix(-14.2918 20.63998 -71.89042 -49.77929 214.2 154.6)"/><ellipse fill="#4a4a4a" rx="1" ry="1" transform="rotate(77.9 75.2 162.6) scale(23.64248 74.64935)"/><ellipse fill="#090909" cx="170" rx="186" ry="27"/><ellipse fill="#040404" cx="107" cy="83" rx="62" ry="24"/><ellipse fill="#545454" rx="1" ry="1" transform="matrix(4.71674 9.58567 -33.34476 16.40766 59.7 53.5)"/></g></svg>